REM MD5 f8a7789b44ad92f12eb246ab40cf07b0
FILE "Yetisports Deluxe (Europe) (En,Fr,De,Es,It).bin" BINARY
  TRACK 01 MODE2/2352
    INDEX 01 00:00:00
  TRACK 02 AUDIO
    INDEX 00 03:45:34
    INDEX 01 03:47:34
  TRACK 03 AUDIO
    INDEX 00 06:31:57
    INDEX 01 06:33:57
REM LEADOUT 10:01:06
